HIERARCHY
ROOT Hips
{
	OFFSET 0.00000 0.00000 0.00000
	CHANNELS 6 Xposition Yposition Zposition Zrotation Yrotation Xrotation 
	JOINT LHipJoint
	{
		OFFSET 0 0 0
		CHANNELS 3 Zrotation Yrotation Xrotation
		JOINT LeftUpLeg
		{
			OFFSET 2.36090 -1.39315 1.24752
			CHANNELS 3 Zrotation Yrotation Xrotation
			JOINT LeftLeg
			{
				OFFSET 2.06810 -5.68207 0.00000
				CHANNELS 3 Zrotation Yrotation Xrotation
				JOINT LeftFoot
				{
					OFFSET 2.46631 -6.77613 0.00000
					CHANNELS 3 Zrotation Yrotation Xrotation
					JOINT LeftToeBase
					{
						OFFSET 0.26031 -0.71520 1.99545
						CHANNELS 3 Zrotation Yrotation Xrotation
						End Site
						{
							OFFSET 0.00000 -0.00000 1.05957
						}
					}
				}
			}
		}
	}
	JOINT RHipJoint
	{
		OFFSET 0 0 0
		CHANNELS 3 Zrotation Yrotation Xrotation
		JOINT RightUpLeg
		{
			OFFSET -2.25243 -1.39315 1.24752
			CHANNELS 3 Zrotation Yrotation Xrotation
			JOINT RightLeg
			{
				OFFSET -2.17343 -5.97145 0.00000
				CHANNELS 3 Zrotation Yrotation Xrotation
				JOINT RightFoot
				{
					OFFSET -2.52372 -6.93386 0.00000
					CHANNELS 3 Zrotation Yrotation Xrotation
					JOINT RightToeBase
					{
						OFFSET -0.22538 -0.61923 2.11447
						CHANNELS 3 Zrotation Yrotation Xrotation
						End Site
						{
							OFFSET -0.00000 -0.00000 1.10506
						}
					}
				}
			}
		}
	}
	JOINT LowerBack
	{
		OFFSET 0 0 0
		CHANNELS 3 Zrotation Yrotation Xrotation
		JOINT Spine
		{
			OFFSET 0.01594 2.13103 0.08007
			CHANNELS 3 Zrotation Yrotation Xrotation
			JOINT Spine1
			{
				OFFSET 0.01393 2.09723 0.18338
				CHANNELS 3 Zrotation Yrotation Xrotation
				JOINT Neck
				{
					OFFSET 0 0 0
					CHANNELS 3 Zrotation Yrotation Xrotation
					JOINT Neck1
					{
						OFFSET 0.05351 1.38915 0.32494
						CHANNELS 3 Zrotation Yrotation Xrotation
						JOINT Head
						{
							OFFSET 0.00711 1.45992 -0.21666
							CHANNELS 3 Zrotation Yrotation Xrotation
							End Site
							{
								OFFSET -0.00433 1.47702 -0.11056
							}
						}
					}
				}
				JOINT LeftShoulder
				{
					OFFSET 0 0 0
					CHANNELS 3 Zrotation Yrotation Xrotation
					JOINT LeftArm
					{
						OFFSET 2.87198 0.92249 0.11132
						CHANNELS 3 Zrotation Yrotation Xrotation
						JOINT LeftForeArm
						{
							OFFSET 5.52731 -0.00000 0.00000
							CHANNELS 3 Zrotation Yrotation Xrotation
							JOINT LeftHand
							{
								OFFSET 3.11059 -0.00000 0.00000
								CHANNELS 3 Zrotation Yrotation Xrotation
								JOINT LeftFingerBase
								{
									OFFSET 0 0 0
									CHANNELS 3 Zrotation Yrotation Xrotation
									JOINT LeftHandIndex1
									{
										OFFSET 0.41963 -0.00000 0.00000
										CHANNELS 3 Zrotation Yrotation Xrotation
										End Site
										{
											OFFSET 0.33831 -0.00000 0.00000
										}
									}
								}
								JOINT LThumb
								{
									OFFSET 0 0 0
									CHANNELS 3 Zrotation Yrotation Xrotation
									End Site
									{
										OFFSET 0.34348 -0.00000 0.34348
									}
								}
							}
						}
					}
				}
				JOINT RightShoulder
				{
					OFFSET 0 0 0
					CHANNELS 3 Zrotation Yrotation Xrotation
					JOINT RightArm
					{
						OFFSET -2.94710 0.68072 0.32187
						CHANNELS 3 Zrotation Yrotation Xrotation
						JOINT RightForeArm
						{
							OFFSET -5.25396 -0.00000 -0.00000
							CHANNELS 3 Zrotation Yrotation Xrotation
							JOINT RightHand
							{
								OFFSET -3.10567 -0.00000 0.00000
								CHANNELS 3 Zrotation Yrotation Xrotation
								JOINT RightFingerBase
								{
									OFFSET 0 0 0
									CHANNELS 3 Zrotation Yrotation Xrotation
									JOINT RightHandIndex1
									{
										OFFSET -0.49868 -0.00000 0.00000
										CHANNELS 3 Zrotation Yrotation Xrotation
										End Site
										{
											OFFSET -0.40204 -0.00000 0.00000
										}
									}
								}
								JOINT RThumb
								{
									OFFSET 0 0 0
									CHANNELS 3 Zrotation Yrotation Xrotation
									End Site
									{
										OFFSET -0.40818 -0.00000 0.40818
									}
								}
							}
						}
					}
				}
			}
		}
	}
}
MOTION
Frames: 6
Frame Time: 0.0344828
0.00 0.00 0.00 0 0 0 0 0 0 -21 0 0 0 0 0 0 0 0 0 0 0 0 0 0 21 0 0 0 0 0 0 0 0 0 0 0 0 0 0 0 0 0 0 0 0 0 0 -16 0 0 21 0 0 11 0 0 0 -8 0 0 0 0 0 0 0 0 0 0 0 0 0 0 0 0 0 0 0 0 8 0 0 0 0 0 0 0 0 0 0 0 0 0 0 0 0 0
0.00 0.00 0.00 -19.7884 -79.6127 54.4456 0.0000 0.0000 0.0000 -3.6887 -22.3063 -56.0016 3.5165 11.4876 33.9427 0.2787 4.4315 -12.6039 0.4955 -4.5129 -12.5243 0.0000 0.0000 0.0000 4.1525 30.0756 -57.1562 -4.0984 -12.2902 36.7665 0.2948 -13.4128 -14.9361 -0.0033 0.3737 -1.0268 -0.7967 -0.0776 -4.6356 -1.2186 -0.0895 -1.9105 -0.8073 -0.0594 0.6362 4.2004 2.1848 -20.8611 1.4038 1.4723 12.1789 -0.0357 1.0378 7.1543 0.0000 0.0000 0.0000 -73.9909 -15.1301 48.2099 17.6989 -27.7699 -4.4080 -0.0000 0.0000 -43.3401 29.1156 -1.7486 -0.9736 -7.1250 0.0000 -0.0000 1.9606 27.9767 -0.8122 0.0000 0.0000 0.0000 81.7151 12.5977 44.0469 -20.8051 31.6002 -5.9475 0.0000 -0.0000 -7.6278 -18.1709 -14.0262 4.5483 7.1250 -0.0000 -0.0000 8.5765 -44.5394 0.0983
0.00 0.00 0.00 -19.2575 -78.6804 61.7055 0.0000 0.0000 0.0000 -3.0140 -16.7178 -79.8323 7.8611 16.0161 52.0609 0.5901 -7.3965 -13.8603 0.4016 -4.0688 -11.2703 0.0000 0.0000 0.0000 7.1996 19.9846 -79.8159 -8.2859 -16.3255 53.5860 -0.7765 2.3834 -16.0110 -0.0270 1.0611 -2.9169 0.9545 0.2045 6.0350 -0.9234 0.2847 1.5017 -1.5064 0.1272 -1.8272 2.5471 1.1165 -22.5844 1.5987 0.4565 5.1733 0.1525 0.3582 5.1257 0.0000 -0.0000 0.0000 -72.0950 -34.3260 48.4680 16.9583 -26.8028 -4.0685 -0.0000 0.0000 -43.4813 31.1882 -1.7777 -1.0758 -7.1250 0.0000 -0.0000 3.5580 27.8962 -1.4825 0.0000 -0.0000 0.0000 80.9286 34.3458 47.3642 -19.9994 30.6416 -5.5310 0.0000 -0.0000 -8.9996 -23.8741 -16.1439 7.0158 7.1250 -0.0000 -0.0000 3.7281 -47.5101 -0.2312
0.00 0.00 0.00 -27.0131 -78.6427 72.2105 0.0000 0.0000 0.0000 -3.5182 -9.9708 -96.3680 13.8283 19.0611 71.6795 0.4926 -17.4373 -16.5097 0.0632 -1.6225 -4.4634 0.0000 0.0000 0.0000 16.2491 12.3255 -95.0188 -13.3981 -18.9212 70.3575 -0.1681 18.6355 -14.5572 -0.5596 -4.7914 13.3145 -0.5323 0.1392 19.4370 0.6000 -0.1395 5.1855 0.9856 -0.1696 -5.2717 5.0866 3.0340 -26.2346 0.3700 1.9489 -1.7355 -0.4927 0.7774 3.4438 0.0000 0.0000 0.0000 -61.6295 -54.4655 44.0543 15.9857 -25.5012 -3.6398 -0.0000 0.0000 -42.1225 32.5909 -2.4844 -1.5874 -7.1250 0.0000 -0.0000 4.5900 27.0249 -2.0092 0.0000 0.0000 0.0000 88.5346 57.7911 52.4633 -15.7680 25.2051 -3.5466 0.0000 -0.0000 -6.2182 -29.6621 -16.3198 9.0921 7.1250 -0.0000 -0.0000 -1.8490 -48.5923 0.1639
0.00 0.00 0.00 -17.5989 -78.0934 60.4708 0.0000 0.0000 0.0000 -2.4685 -9.7170 -102.6756 19.3644 19.9903 88.1413 0.9016 -20.7280 -20.9914 0.0270 -1.0612 -2.9172 0.0000 0.0000 0.0000 15.8849 7.4374 -102.0709 -19.3577 -19.9901 88.1217 -0.5936 23.4528 -20.4577 -1.2570 -7.1075 20.0343 -0.6251 0.9416 30.0308 2.1688 0.5754 8.2566 2.6186 0.0136 -7.2261 5.8017 3.6758 -31.2076 -1.7355 2.1313 -2.8672 -1.2468 0.5869 3.7337 0.0000 0.0000 0.0000 -47.4242 -64.8566 32.5545 17.3445 -27.3096 -4.2442 -0.0000 0.0000 -40.8750 35.4178 -5.8895 -4.1735 -7.1250 0.0000 -0.0000 6.3873 22.7782 -3.4370 0.0000 0.0000 0.0000 91.8655 69.6485 58.8814 -13.0043 21.2936 -2.4549 0.0000 0.0000 0.1660 -30.8458 -14.2918 8.3865 7.1250 -0.0000 -0.0000 -3.2009 -46.4811 0.1171
0.00 0.00 0.00 -15.0060 -75.6501 58.4020 0.0000 0.0000 0.0000 0.3843 -7.7946 -112.3922 25.5590 19.2424 106.4531 1.9104 -20.7747 -26.9273 0.0067 -0.5301 -1.4568 0.0000 0.0000 0.0000 16.6618 5.4337 -109.7963 -25.4651 -19.2683 106.1684 -2.1331 23.3196 -28.9469 -1.4920 -7.7163 21.8556 1.1101 1.5543 33.9429 1.6134 1.6090 9.3148 0.5741 0.4052 -7.0235 10.4839 5.4394 -36.6482 -2.2473 1.7702 -3.3729 -2.1634 0.1581 4.1762 -0.0000 0.0000 0.0000 -26.7311 -64.3719 9.6754 12.9834 -21.2628 -2.4473 -0.0000 0.0000 -39.1869 43.0595 -5.6384 -5.2456 -7.1250 0.0000 -0.0000 11.9133 22.3327 -6.6336 -0.0000 0.0000 0.0000 109.1183 75.2643 61.0718 -10.8886 18.1172 -1.7411 0.0000 0.0000 17.8551 -44.3958 -14.3162 13.6101 7.1250 -0.0000 -0.0000 -16.7550 -48.8900 1.6498
